<svg xmlns="http://www.w3.org/2000/svg" viewBox="0 0 160 160" role="img" aria-label="Mason Reed profile">
  <defs>
    <linearGradient id="bg1" x1="0" y1="0" x2="1" y2="1">
      <stop offset="0%" stop-color="#243447"/>
      <stop offset="100%" stop-color="#111b2b"/>
    </linearGradient>
  </defs>
  <rect width="160" height="160" rx="80" fill="url(#bg1)"/>
  <circle cx="80" cy="66" r="30" fill="#f0c7a7"/>
  <path d="M50 57c2-19 12-30 30-30s28 11 30 30c-5-5-10-8-16-10-8 6-18 10-33 10-4 0-7 0-11 0z" fill="#2f1f15"/>
  <path d="M34 152c4-28 22-46 46-46s42 18 46 46" fill="#385a7a"/>
  <circle cx="68" cy="66" r="3" fill="#2a1a12"/>
  <circle cx="92" cy="66" r="3" fill="#2a1a12"/>
  <path d="M70 82c6 5 14 5 20 0" stroke="#7f4e3a" stroke-width="3" fill="none" stroke-linecap="round"/>
</svg>
